<svg width="24" height="24" viewBox="0 0 24 24" fill="none" xmlns="http://www.w3.org/2000/svg">
<path fill-rule="evenodd" clip-rule="evenodd" d="M19.5 17.25C19.9142 17.25 20.25 16.9142 20.25 16.5V6C20.25 5.58579 19.9142 5.25 19.5 5.25H4.5C4.08579 5.25 3.75 5.58579 3.75 6V16.5C3.75 16.9142 4.08579 17.25 4.5 17.25H19.5ZM21.75 16.5C21.75 17.7426 20.7426 18.75 19.5 18.75H4.5C3.25736 18.75 2.25 17.7426 2.25 16.5V6C2.25 4.75736 3.25736 3.75 4.5 3.75H19.5C20.7426 3.75 21.75 4.75736 21.75 6V16.5Z" fill="#868686"/>
<path fill-rule="evenodd" clip-rule="evenodd" d="M8.25 21C8.25 20.5858 8.58579 20.25 9 20.25H15C15.4142 20.25 15.75 20.5858 15.75 21C15.75 21.4142 15.4142 21.75 15 21.75H9C8.58579 21.75 8.25 21.4142 8.25 21Z" fill="#868686"/>
<path fill-rule="evenodd" clip-rule="evenodd" d="M2.25 14.25C2.25 13.8358 2.58579 13.5 3 13.5H21C21.4142 13.5 21.75 13.8358 21.75 14.25C21.75 14.6642 21.4142 15 21 15H3C2.58579 15 2.25 14.6642 2.25 14.25Z" fill="#868686"/>
<path fill-rule="evenodd" clip-rule="evenodd" d="M12 17.25C12.4142 17.25 12.75 17.5858 12.75 18V21C12.75 21.4142 12.4142 21.75 12 21.75C11.5858 21.75 11.25 21.4142 11.25 21V18C11.25 17.5858 11.5858 17.25 12 17.25Z" fill="#868686"/>
</svg>
