<svg width="24" height="24" viewBox="0 0 24 24" fill="none" xmlns="http://www.w3.org/2000/svg">
<path fill-rule="evenodd" clip-rule="evenodd" d="M2.25 7.5C2.25 6.67157 2.92157 6 3.75 6H20.25C21.0784 6 21.75 6.67157 21.75 7.5V19.5C21.75 20.3284 21.0784 21 20.25 21H3.75C2.92157 21 2.25 20.3284 2.25 19.5V7.5ZM20.25 7.5H3.75V19.5H20.25V7.5Z" fill="white"/>
<path fill-rule="evenodd" clip-rule="evenodd" d="M8.15901 3.65901C8.58097 3.23705 9.15326 3 9.75 3H14.25C14.8467 3 15.419 3.23705 15.841 3.65901C16.2629 4.08097 16.5 4.65326 16.5 5.25V6.75C16.5 7.16421 16.1642 7.5 15.75 7.5C15.3358 7.5 15 7.16421 15 6.75V5.25C15 5.05109 14.921 4.86032 14.7803 4.71967C14.6397 4.57902 14.4489 4.5 14.25 4.5H9.75C9.55109 4.5 9.36032 4.57902 9.21967 4.71967C9.07902 4.86032 9 5.05109 9 5.25V6.75C9 7.16421 8.66421 7.5 8.25 7.5C7.83579 7.5 7.5 7.16421 7.5 6.75V5.25C7.5 4.65326 7.73705 4.08097 8.15901 3.65901Z" fill="white"/>
<path fill-rule="evenodd" clip-rule="evenodd" d="M21.6494 11.4652C21.8567 11.8237 21.7342 12.2825 21.3756 12.4899C18.5263 14.1378 15.2922 15.0037 12.0006 15C8.70781 15.0083 5.47186 14.1419 2.62373 12.4894C2.26545 12.2815 2.14353 11.8225 2.35141 11.4642C2.55929 11.106 3.01825 10.9841 3.37652 11.1919C5.99524 12.7114 8.97058 13.5079 11.9982 13.5L12.001 13.5C15.0287 13.5036 18.0037 12.7072 20.6246 11.1914C20.9832 10.984 21.442 11.1066 21.6494 11.4652Z" fill="white"/>
<path fill-rule="evenodd" clip-rule="evenodd" d="M10.125 11.25C10.125 10.8358 10.4608 10.5 10.875 10.5H13.125C13.5392 10.5 13.875 10.8358 13.875 11.25C13.875 11.6642 13.5392 12 13.125 12H10.875C10.4608 12 10.125 11.6642 10.125 11.25Z" fill="white"/>
</svg>
