<svg width="18" height="20" viewBox="0 0 18 20" fill="none" xmlns="http://www.w3.org/2000/svg">
<path fill-rule="evenodd" clip-rule="evenodd" d="M1.18934 3.68934C1.47064 3.40804 1.85217 3.25 2.25 3.25H9.75C9.94891 3.25 10.1397 3.32902 10.2803 3.46967L14.0303 7.21967C14.171 7.36032 14.25 7.55109 14.25 7.75V18.25C14.25 18.6478 14.092 19.0294 13.8107 19.3107C13.5294 19.592 13.1478 19.75 12.75 19.75H2.25C1.85218 19.75 1.47065 19.592 1.18934 19.3107C0.908035 19.0294 0.75 18.6478 0.75 18.25V4.75C0.75 4.35217 0.908036 3.97064 1.18934 3.68934ZM9.43934 4.75H2.25L2.25 18.25H12.75V8.06066L9.43934 4.75Z" fill="#868686"/>
<path fill-rule="evenodd" clip-rule="evenodd" d="M4.18934 0.68934C4.47064 0.408036 4.85217 0.25 5.25 0.25H12.75C12.9489 0.25 13.1397 0.329018 13.2803 0.46967L17.0303 4.21967C17.171 4.36032 17.25 4.55109 17.25 4.75V15.25C17.25 15.6478 17.092 16.0294 16.8107 16.3107C16.5294 16.592 16.1478 16.75 15.75 16.75H13.5C13.0858 16.75 12.75 16.4142 12.75 16C12.75 15.5858 13.0858 15.25 13.5 15.25H15.75V5.06066L12.4393 1.75L5.25 1.75V4C5.25 4.41421 4.91421 4.75 4.5 4.75C4.08579 4.75 3.75 4.41421 3.75 4V1.75C3.75 1.35217 3.90804 0.970644 4.18934 0.68934Z" fill="#868686"/>
<path fill-rule="evenodd" clip-rule="evenodd" d="M4.5 12.25C4.5 11.8358 4.83579 11.5 5.25 11.5H9.75C10.1642 11.5 10.5 11.8358 10.5 12.25C10.5 12.6642 10.1642 13 9.75 13H5.25C4.83579 13 4.5 12.6642 4.5 12.25Z" fill="#868686"/>
<path fill-rule="evenodd" clip-rule="evenodd" d="M4.5 15.25C4.5 14.8358 4.83579 14.5 5.25 14.5H9.75C10.1642 14.5 10.5 14.8358 10.5 15.25C10.5 15.6642 10.1642 16 9.75 16H5.25C4.83579 16 4.5 15.6642 4.5 15.25Z" fill="#868686"/>
</svg>
