<svg width="32" height="32" viewBox="0 0 32 32" fill="none" xmlns="http://www.w3.org/2000/svg">
<rect width="32" height="32" rx="2" fill="#F9F9F9"/>
<path fill-rule="evenodd" clip-rule="evenodd" d="M10.2714 13.3964C11.4634 12.2045 13.3337 11 16 11C18.6663 11 20.5366 12.2045 21.7286 13.3964C22.3231 13.991 22.7518 14.5846 23.0325 15.0305C23.1731 15.2538 23.2773 15.4412 23.3472 15.5746C23.3822 15.6414 23.4086 15.6948 23.4268 15.7326C23.4359 15.7514 23.4429 15.7664 23.4479 15.7773L23.4539 15.7903L23.4558 15.7944L23.4564 15.7959L23.4567 15.7965C23.4567 15.7965 23.4569 15.7969 23 16C23.4569 16.2031 23.4567 16.2035 23.4567 16.2035L23.4564 16.2041L23.4558 16.2056L23.4539 16.2097L23.4479 16.2227C23.4429 16.2336 23.4359 16.2486 23.4268 16.2674C23.4086 16.3052 23.3822 16.3586 23.3472 16.4254C23.2773 16.5588 23.1731 16.7462 23.0325 16.9695C22.7518 17.4154 22.3231 18.009 21.7286 18.6036C20.5366 19.7955 18.6663 21 16 21C13.3337 21 11.4634 19.7955 10.2714 18.6036C9.67693 18.009 9.24824 17.4154 8.96751 16.9695C8.8269 16.7462 8.7227 16.5588 8.65279 16.4254C8.61781 16.3586 8.59136 16.3052 8.57318 16.2674C8.56409 16.2486 8.55706 16.2336 8.55205 16.2227L8.54607 16.2097L8.5442 16.2056L8.54356 16.2041L8.5433 16.2035C8.5433 16.2035 8.54309 16.2031 9 16C8.54309 15.7969 8.5433 15.7965 8.5433 15.7965L8.54356 15.7959L8.5442 15.7944L8.54607 15.7903L8.55205 15.7773C8.55706 15.7664 8.56409 15.7514 8.57318 15.7326C8.59136 15.6948 8.61781 15.6414 8.65279 15.5746C8.7227 15.4412 8.8269 15.2538 8.96751 15.0305C9.24824 14.5846 9.67693 13.991 10.2714 13.3964ZM9 16L8.54309 15.7969C8.48564 15.9262 8.48564 16.0738 8.54309 16.2031L9 16ZM9.55906 16C9.61788 16.1102 9.70235 16.2598 9.81374 16.4367C10.0643 16.8346 10.4481 17.366 10.9786 17.8964C12.0366 18.9545 13.6663 20 16 20C18.3337 20 19.9634 18.9545 21.0214 17.8964C21.5519 17.366 21.9357 16.8346 22.1863 16.4367C22.2976 16.2598 22.3821 16.1102 22.4409 16C22.3821 15.8898 22.2976 15.7402 22.1863 15.5633C21.9357 15.1654 21.5519 14.634 21.0214 14.1036C19.9634 13.0455 18.3337 12 16 12C13.6663 12 12.0366 13.0455 10.9786 14.1036C10.4481 14.634 10.0643 15.1654 9.81374 15.5633C9.70235 15.7402 9.61788 15.8898 9.55906 16ZM23 16L23.4569 16.2031C23.5144 16.0738 23.5144 15.9262 23.4569 15.7969L23 16Z" fill="#868686"/>
<path fill-rule="evenodd" clip-rule="evenodd" d="M16 14C14.8954 14 14 14.8954 14 16C14 17.1046 14.8954 18 16 18C17.1046 18 18 17.1046 18 16C18 14.8954 17.1046 14 16 14ZM13 16C13 14.3431 14.3431 13 16 13C17.6569 13 19 14.3431 19 16C19 17.6569 17.6569 19 16 19C14.3431 19 13 17.6569 13 16Z" fill="#868686"/>
</svg>
