<svg width="25" height="25" viewBox="0 0 25 25" fill="none" xmlns="http://www.w3.org/2000/svg">
<rect width="25" height="25" rx="2" fill="#ECECEC"/>
<path d="M18.75 7H6.75C6.33579 7 6 7.33579 6 7.75V18.25C6 18.6642 6.33579 19 6.75 19H18.75C19.1642 19 19.5 18.6642 19.5 18.25V7.75C19.5 7.33579 19.1642 7 18.75 7Z" stroke="#A8A8A8" stroke-linecap="round" stroke-linejoin="round"/>
<path d="M6 16.7503L9.92249 12.174C10.2246 11.8216 10.771 11.8254 11.0681 12.182L13.7242 15.3693C14.0066 15.7081 14.5189 15.7314 14.8307 15.4195L15.9075 14.3428C16.2236 14.0267 16.7442 14.0555 17.0235 14.4046L19.5 17.5003" stroke="#A8A8A8" stroke-linecap="round" stroke-linejoin="round"/>
<path d="M14.25 10.75C14.25 10.3358 14.5858 10 15 10C15.4142 10 15.75 10.3358 15.75 10.75C15.75 11.1642 15.4142 11.5 15 11.5C14.5858 11.5 14.25 11.1642 14.25 10.75Z" stroke="#A8A8A8" stroke-linecap="round" stroke-linejoin="round"/>
</svg>
