<svg width="32" height="32" viewBox="0 0 32 32" fill="none" xmlns="http://www.w3.org/2000/svg">
<rect width="32" height="32" rx="2" fill="#00A3DD"/>
<path fill-rule="evenodd" clip-rule="evenodd" d="M16 9.5C16.2761 9.5 16.5 9.72386 16.5 10V19.5C16.5 19.7761 16.2761 20 16 20C15.7239 20 15.5 19.7761 15.5 19.5V10C15.5 9.72386 15.7239 9.5 16 9.5Z" fill="white"/>
<path fill-rule="evenodd" clip-rule="evenodd" d="M11.1464 14.6464C11.3417 14.4512 11.6583 14.4512 11.8536 14.6464L16 18.7929L20.1464 14.6464C20.3417 14.4512 20.6583 14.4512 20.8536 14.6464C21.0488 14.8417 21.0488 15.1583 20.8536 15.3536L16.3536 19.8536C16.1583 20.0488 15.8417 20.0488 15.6464 19.8536L11.1464 15.3536C10.9512 15.1583 10.9512 14.8417 11.1464 14.6464Z" fill="white"/>
<path fill-rule="evenodd" clip-rule="evenodd" d="M10 21.5C10 21.2239 10.2239 21 10.5 21H21.5C21.7761 21 22 21.2239 22 21.5C22 21.7761 21.7761 22 21.5 22H10.5C10.2239 22 10 21.7761 10 21.5Z" fill="white"/>
</svg>
