<svg width="24" height="24" viewBox="0 0 24 24" fill="none" xmlns="http://www.w3.org/2000/svg">
<path fill-rule="evenodd" clip-rule="evenodd" d="M12 3.75C7.44365 3.75 3.75 7.44365 3.75 12C3.75 16.5563 7.44365 20.25 12 20.25C16.5563 20.25 20.25 16.5563 20.25 12C20.25 7.44365 16.5563 3.75 12 3.75ZM2.25 12C2.25 6.61522 6.61522 2.25 12 2.25C17.3848 2.25 21.75 6.61522 21.75 12C21.75 17.3848 17.3848 21.75 12 21.75C6.61522 21.75 2.25 17.3848 2.25 12Z" fill="#868686"/>
<path fill-rule="evenodd" clip-rule="evenodd" d="M9.92902 7.46148C10.5213 7.00123 11.2499 6.75137 12 6.75137C12.7501 6.75137 13.4787 7.00123 14.071 7.46148C14.6632 7.92173 15.0853 8.56615 15.2705 9.29298C15.4557 10.0198 15.3935 10.7876 15.0938 11.4752C14.8871 11.9492 14.5757 12.3664 14.1863 12.6975L15.2385 15.1527C15.3371 15.3797 15.378 15.6277 15.3574 15.8744C15.3368 16.1221 15.255 16.3608 15.1193 16.5691C14.9835 16.7773 14.7982 16.9485 14.5799 17.0674C14.3616 17.1862 14.1172 17.249 13.8686 17.25L13.8656 17.25H10.1314C9.88281 17.249 9.6384 17.1862 9.4201 17.0674C9.20181 16.9485 9.01647 16.7773 8.88075 16.5691C8.74502 16.3608 8.66318 16.1221 8.64256 15.8744C8.62202 15.6277 8.66288 15.3797 8.76146 15.1526L9.81367 12.6975C9.42434 12.3664 9.11289 11.9492 8.90624 11.4752C8.60648 10.7876 8.5443 10.0198 8.72952 9.29298C8.91473 8.56615 9.33678 7.92173 9.92902 7.46148ZM12 8.25137C11.5833 8.25137 11.1785 8.39018 10.8495 8.64588C10.5204 8.90157 10.286 9.25958 10.1831 9.66337C10.0802 10.0672 10.1147 10.4937 10.2812 10.8757C10.4478 11.2577 10.7368 11.5733 11.1027 11.7727C11.4424 11.9579 11.5855 12.3711 11.4331 12.7267L10.1374 15.75H13.8626L13.8606 15.7454L12.5669 12.7267C12.4145 12.3711 12.5576 11.9579 12.8973 11.7727C13.2632 11.5733 13.5522 11.2577 13.7188 10.8757C13.8853 10.4937 13.9198 10.0672 13.8169 9.66337C13.714 9.25958 13.4796 8.90157 13.1505 8.64588C12.8215 8.39018 12.4167 8.25137 12 8.25137Z" fill="#868686"/>
</svg>
