<svg width="24" height="24" viewBox="0 0 24 24" fill="none" xmlns="http://www.w3.org/2000/svg">
<path fill-rule="evenodd" clip-rule="evenodd" d="M12.0652 2.24993C13.3505 2.23999 14.625 2.48425 15.8155 2.9687C17.0078 3.45387 18.0923 4.17035 19.0063 5.0768C19.9202 5.98324 20.6457 7.0617 21.1408 8.24995C21.6358 9.43819 21.8907 10.7127 21.8906 11.9999C21.8906 12 21.8906 11.9999 21.8906 11.9999V17.2499C21.8906 17.8467 21.6536 18.419 21.2316 18.8409C20.8097 19.2629 20.2374 19.4999 19.6406 19.4999H18.1406C17.5439 19.4999 16.9716 19.2629 16.5496 18.8409C16.1277 18.419 15.8906 17.8467 15.8906 17.2499V13.4999C15.8906 12.9032 16.1277 12.3309 16.5496 11.909C16.9716 11.487 17.5439 11.2499 18.1406 11.2499H20.3565C20.2806 10.4179 20.0786 9.60074 19.7561 8.82682C19.3372 7.82138 18.7234 6.90884 17.95 6.14185C17.1766 5.37486 16.259 4.76861 15.2501 4.35807C14.2412 3.94754 13.1611 3.74084 12.0719 3.74992L12.0602 3.74993C10.9717 3.74199 9.89243 3.94952 8.88454 4.36057C7.87665 4.77162 6.96006 5.37805 6.1876 6.14492C5.41513 6.9118 4.80206 7.82395 4.3837 8.82883C4.06174 9.60216 3.86 10.4186 3.78414 11.2499H6C6.59674 11.2499 7.16903 11.487 7.59099 11.909C8.01295 12.3309 8.25 12.9032 8.25 13.4999V17.2499C8.25 17.8467 8.01295 18.419 7.59099 18.8409C7.16903 19.2629 6.59674 19.4999 6 19.4999H4.5C3.90326 19.4999 3.33097 19.2629 2.90901 18.8409C2.48705 18.419 2.25 17.8467 2.25 17.2499V12C2.24997 10.7136 2.50449 9.43989 2.99892 8.25231C3.49334 7.06473 4.21788 5.98672 5.1308 5.08042C6.04371 4.17411 7.12695 3.45742 8.31809 2.97164C9.50743 2.48659 10.7809 2.24133 12.0652 2.24993ZM3.75 12.7499V17.2499C3.75 17.4489 3.82902 17.6396 3.96967 17.7803C4.11032 17.9209 4.30109 17.9999 4.5 17.9999H6C6.19891 17.9999 6.38968 17.9209 6.53033 17.7803C6.67098 17.6396 6.75 17.4489 6.75 17.2499V13.4999C6.75 13.301 6.67098 13.1103 6.53033 12.9696C6.38968 12.829 6.19891 12.7499 6 12.7499H3.75ZM20.3906 12.7499H18.1406C17.9417 12.7499 17.7509 12.829 17.6103 12.9696C17.4696 13.1103 17.3906 13.301 17.3906 13.4999V17.2499C17.3906 17.4489 17.4696 17.6396 17.6103 17.7803C17.7509 17.9209 17.9417 17.9999 18.1406 17.9999H19.6406C19.8395 17.9999 20.0303 17.9209 20.171 17.7803C20.3116 17.6396 20.3906 17.4489 20.3906 17.2499V12.7499Z" fill="#868686"/>
<path fill-rule="evenodd" clip-rule="evenodd" d="M21.1406 16.5C21.5548 16.5 21.8906 16.8357 21.8906 17.2499V19.5C21.8906 20.4945 21.4955 21.4483 20.7923 22.1516C20.089 22.8549 19.1352 23.25 18.1406 23.25H12.75C12.3358 23.25 12 22.9142 12 22.5C12 22.0857 12.3358 21.75 12.75 21.75H18.1406C18.7374 21.75 19.3097 21.5129 19.7316 21.0909C20.1536 20.669 20.3906 20.0967 20.3906 19.5V17.2499C20.3906 16.8357 20.7264 16.5 21.1406 16.5Z" fill="#868686"/>
</svg>
