<svg width="20" height="18" viewBox="0 0 20 18" fill="none" xmlns="http://www.w3.org/2000/svg">
<path fill-rule="evenodd" clip-rule="evenodd" d="M0.25 4.5C0.25 3.67157 0.921573 3 1.75 3H18.25C19.0784 3 19.75 3.67157 19.75 4.5V16.5C19.75 17.3284 19.0784 18 18.25 18H1.75C0.921573 18 0.25 17.3284 0.25 16.5V4.5ZM18.25 4.5H1.75V16.5H18.25V4.5Z" fill="#868686"/>
<path fill-rule="evenodd" clip-rule="evenodd" d="M6.15901 0.65901C6.58097 0.237053 7.15326 0 7.75 0H12.25C12.8467 0 13.419 0.237053 13.841 0.65901C14.2629 1.08097 14.5 1.65326 14.5 2.25V3.75C14.5 4.16421 14.1642 4.5 13.75 4.5C13.3358 4.5 13 4.16421 13 3.75V2.25C13 2.05109 12.921 1.86032 12.7803 1.71967C12.6397 1.57902 12.4489 1.5 12.25 1.5H7.75C7.55109 1.5 7.36032 1.57902 7.21967 1.71967C7.07902 1.86032 7 2.05109 7 2.25V3.75C7 4.16421 6.66421 4.5 6.25 4.5C5.83579 4.5 5.5 4.16421 5.5 3.75V2.25C5.5 1.65326 5.73705 1.08097 6.15901 0.65901Z" fill="#868686"/>
<path fill-rule="evenodd" clip-rule="evenodd" d="M19.6494 8.46516C19.8567 8.82373 19.7342 9.28251 19.3756 9.48988C16.5263 11.1378 13.2922 12.0037 10.0006 12C6.70781 12.0083 3.47186 11.1419 0.623726 9.48935C0.265453 9.28147 0.143535 8.82251 0.351414 8.46424C0.559292 8.10597 1.01825 7.98405 1.37652 8.19193C3.99524 9.71137 6.97058 10.5079 9.99817 10.5L10.001 10.5C13.0287 10.5036 16.0037 9.7072 18.6246 8.1914C18.9832 7.98403 19.442 8.10659 19.6494 8.46516Z" fill="#868686"/>
<path fill-rule="evenodd" clip-rule="evenodd" d="M8.125 8.25C8.125 7.83579 8.46079 7.5 8.875 7.5H11.125C11.5392 7.5 11.875 7.83579 11.875 8.25C11.875 8.66421 11.5392 9 11.125 9H8.875C8.46079 9 8.125 8.66421 8.125 8.25Z" fill="#868686"/>
</svg>
